# xmcd
#
# Track frame offsets: 
#        182
#        15670
#        32732
#        52402
#        69202
#        102315
#        121530
#        147825
#        157980
#        177720
#
# Disc length: 2662 seconds
#
# Revision: 4
# Processed by: cddbd v1.5.2PL0 Copyright (c) Steve Scherf et al.
# Submitted via: ExactAudioCopy v0.99pb4
#
DISCID=830a640a
DTITLE=Big Joe Turner - The Boss of the Blues
DYEAR=1956
DGENRE=Blues
TTITLE0=Cherry Red
TTITLE1=Roll 'Em Pete
TTITLE2=I Want a Little Girl
TTITLE3=Low Down Dog
TTITLE4=Wee Baby Blues
TTITLE5=You're Driving Me Crazy (What Did I Do?)
TTITLE6=How Long Blues
TTITLE7=Morning Glories
TTITLE8=St. Louis Blues
TTITLE9=Piney Brown Blues
EXTD=Atlantic 8812-2\n\nJoe Turner:  vocals\nJoe Newman:  trumpet\nLaw
EXTD=rence Brown:  trombone\nPete Brown:  alto sax\nFrank Wess:  tenor
EXTD=sax\nPete Johnson:  piano\nFreddie Green:  guitar\nWalter Page: 
EXTD=bass\nCliff Leeman:  drums\n\nFirst released in 1956 as Atlantic 
EXTD=1234, "Joe Turner Sings Kansas City Jazz: The Boss of the Blues"\n
EXTT0=
EXTT1=
EXTT2=
EXTT3=
EXTT4=
EXTT5=
EXTT6=
EXTT7=
EXTT8=
EXTT9=
PLAYORDER=
